<svg width="33" height="32" viewBox="0 0 33 32" fill="none" xmlns="http://www.w3.org/2000/svg">
<path d="M0.497559 12.0889C0.497559 10.3371 1.91767 8.91699 3.66947 8.91699L29.0448 8.91699C30.7966 8.91699 32.2167 10.3371 32.2167 12.0889V20.5474C32.2167 26.3867 27.483 31.1204 21.6437 31.1204H11.0706C5.23127 31.1204 0.497559 26.3867 0.497559 20.5473L0.497559 12.0889Z" fill="#838383"/>
<path d="M0.497559 12.0889C0.497559 10.3371 1.91767 8.91699 3.66947 8.91699L29.0448 8.91699C30.7966 8.91699 32.2167 10.3371 32.2167 12.0889V19.4901C32.2167 25.3294 27.483 30.0631 21.6437 30.0631H11.0706C5.23127 30.0631 0.497559 25.3294 0.497559 19.49L0.497559 12.0889Z" fill="#2D2D2D"/>
<path d="M0.497559 4.68779C0.497559 2.93599 1.91767 1.51587 3.66947 1.51587L29.0448 1.51587C30.7966 1.51587 32.2167 2.93598 32.2167 4.68778V7.8597C32.2167 9.02757 31.27 9.97431 30.1021 9.97431L2.61217 9.97431C1.4443 9.97431 0.497559 9.02757 0.497559 7.8597L0.497559 4.68779Z" fill="black" fill-opacity="0.1"/>
<path d="M1.55469 11.0315C1.55469 9.86361 2.50143 8.91687 3.6693 8.91687H5.78391C7.53571 8.91687 8.95582 10.337 8.95582 12.0888V21.957C8.95582 24.682 6.74676 26.8911 4.02173 26.8911C2.65922 26.8911 1.55469 25.7865 1.55469 24.424L1.55469 11.0315Z" fill="black" fill-opacity="0.1"/>
<path d="M0.497559 11.0316C0.497559 9.86374 1.4443 8.91699 2.61217 8.91699H4.72678C6.47858 8.91699 7.89869 10.3371 7.89869 12.0889L7.89869 21.9571C7.89869 24.6821 5.68963 26.8912 2.9646 26.8912C1.60209 26.8912 0.497559 25.7866 0.497559 24.4241L0.497559 11.0316Z" fill="#7D7D7D"/>
<path d="M23.7583 12.0888C23.7583 10.337 25.1784 8.91687 26.9302 8.91687H29.0448C30.2127 8.91687 31.1594 9.86361 31.1594 11.0315V24.424C31.1594 25.7865 30.0549 26.8911 28.6924 26.8911C25.9674 26.8911 23.7583 24.682 23.7583 21.957V12.0888Z" fill="black" fill-opacity="0.1"/>
<path d="M24.8154 12.0889C24.8154 10.3371 26.2355 8.91699 27.9873 8.91699H30.102C31.2698 8.91699 32.2166 9.86374 32.2166 11.0316V24.4241C32.2166 25.7866 31.112 26.8912 29.7495 26.8912C27.0245 26.8912 24.8154 24.6821 24.8154 21.9571V12.0889Z" fill="#7D7D7D"/>
<path d="M0.497559 3.63041C0.497559 1.87861 1.91767 0.458496 3.66947 0.458496H29.0448C30.7966 0.458496 32.2167 1.87861 32.2167 3.63041V6.80233C32.2167 7.97019 31.27 8.91694 30.1021 8.91694H2.61217C1.4443 8.91694 0.497559 7.97019 0.497559 6.80233V3.63041Z" fill="#7D7D7D"/>
</svg>
