<svg width="81" height="81" viewBox="0 0 81 81" fill="none" xmlns="http://www.w3.org/2000/svg">
<path d="M6.63221 18.5683C16.3725 8.82806 32.1646 8.82807 41.9049 18.5684L62.7618 39.4252C72.5021 49.1655 72.5021 64.9576 62.7618 74.6979C60.8137 76.646 57.6553 76.646 55.7072 74.6979L6.63222 25.6229C4.68416 23.6748 4.68416 20.5164 6.63221 18.5683Z" fill="#7D7D7D"/>
<path d="M11.9998 24.2427C18.7756 17.4668 29.7615 17.4668 36.5373 24.2427L57.0875 44.7929C63.8633 51.5687 63.8633 62.5545 57.0875 69.3304C55.7323 70.6856 53.5351 70.6856 52.18 69.3304L11.9998 29.1502C10.6446 27.795 10.6446 25.5979 11.9998 24.2427Z" fill="#212529" fill-opacity="0.2"/>
<path d="M8.77948 27.4633C16.8258 19.4169 29.8715 19.4169 37.9178 27.4633L53.8672 43.4127C61.9135 51.459 61.9135 64.5046 53.8672 72.5509C52.2579 74.1602 49.6488 74.1602 48.0395 72.5509L8.77948 33.2909C7.17021 31.6816 7.17022 29.0725 8.77948 27.4633Z" fill="#838383"/>
<path d="M9.54628 26.6965C17.1691 19.0736 29.5282 19.0736 37.151 26.6965L54.634 44.1795C62.2568 51.8023 62.2568 64.1613 54.634 71.7841C53.1094 73.3087 50.6376 73.3087 49.113 71.7841L9.54627 32.2174C8.02171 30.6928 8.02171 28.221 9.54628 26.6965Z" fill="#2D2D2D"/>
<path d="M45.4321 36.8181L30.7096 51.5406" stroke="black" stroke-opacity="0.2" stroke-width="1.05731" stroke-linecap="round"/>
</svg>
