<svg width="81" height="34" viewBox="0 0 81 34" fill="none" xmlns="http://www.w3.org/2000/svg">
<path d="M0.681641 24.9835C0.681641 11.2087 11.8484 0.0419922 25.6232 0.0419922H55.1193C68.8941 0.0419922 80.0608 11.2087 80.0608 24.9835C80.0608 27.7385 77.8275 29.9719 75.0725 29.9719H5.66996C2.91499 29.9719 0.681641 27.7385 0.681641 24.9835Z" fill="#7D7D7D"/>
<path d="M8.48926 25.2005C8.48926 15.618 16.2574 7.84985 25.8399 7.84985H54.9022C64.4847 7.84985 72.2529 15.618 72.2529 25.2005C72.2529 27.117 70.6992 28.6706 68.7827 28.6706H11.9594C10.0429 28.6706 8.48926 27.117 8.48926 25.2005Z" fill="#212529" fill-opacity="0.2"/>
<path d="M8.48926 29.755C8.48926 18.3757 17.7139 9.15106 29.0931 9.15106H51.649C63.0282 9.15106 72.2529 18.3757 72.2529 29.755C72.2529 32.0308 70.4079 33.8757 68.1321 33.8757H12.61C10.3342 33.8757 8.48926 32.0308 8.48926 29.755Z" fill="#838383"/>
<path d="M8.48926 28.6705C8.48926 17.8902 17.2284 9.15106 28.0087 9.15106H52.7334C63.5137 9.15106 72.2529 17.8902 72.2529 28.6705C72.2529 30.8266 70.505 32.5744 68.349 32.5744H12.3931C10.2371 32.5744 8.48926 30.8266 8.48926 28.6705Z" fill="#2D2D2D"/>
<path d="M41.022 10.4523V31.2731" stroke="black" stroke-opacity="0.2" stroke-width="1.05731" stroke-linecap="round"/>
</svg>
